<?xml version="1.0" encoding="UTF-8" standalone="no"?>
<!-- Created with Inkscape (http://www.inkscape.org/) -->
<svg
   xmlns:dc="http://purl.org/dc/elements/1.1/"
   xmlns:cc="http://web.resource.org/cc/"
   xmlns:rdf="http://www.w3.org/1999/02/22-rdf-syntax-ns#"
   xmlns:svg="http://www.w3.org/2000/svg"
   xmlns="http://www.w3.org/2000/svg"
   xmlns:sodipodi="http://sodipodi.sourceforge.net/DTD/sodipodi-0.dtd"
   xmlns:inkscape="http://www.inkscape.org/namespaces/inkscape"
   width="269.20001"
   height="262.23001"
   id="svg2"
   sodipodi:version="0.32"
   inkscape:version="0.45.1"
   sodipodi:docbase="C:\Documents and Settings\Henrik.HENRIKS\My Documents\svg"
   sodipodi:docname="U+214B.svg"
   inkscape:output_extension="org.inkscape.output.svg.inkscape"
   version="1.0">
  <defs
     id="defs4" />
  <sodipodi:namedview
     id="base"
     pagecolor="#ffffff"
     bordercolor="#666666"
     borderopacity="1.0"
     gridtolerance="10000"
     guidetolerance="10"
     objecttolerance="10"
     inkscape:pageopacity="0.0"
     inkscape:pageshadow="2"
     inkscape:zoom="1.4142136"
     inkscape:cx="198.96789"
     inkscape:cy="33.698758"
     inkscape:document-units="px"
     inkscape:current-layer="layer1"
     inkscape:window-width="744"
     inkscape:window-height="573"
     inkscape:window-x="216"
     inkscape:window-y="232"
     height="262.23px"
     width="269.2px"
     showgrid="false" />
  <metadata
     id="metadata7">
    <rdf:RDF>
      <cc:Work
         rdf:about="">
        <dc:format>image/svg+xml</dc:format>
        <dc:type
           rdf:resource="http://purl.org/dc/dcmitype/StillImage" />
      </cc:Work>
    </rdf:RDF>
  </metadata>
  <g
     inkscape:label="Layer 1"
     inkscape:groupmode="layer"
     id="layer1"
     transform="translate(-1.3114659,-1.338168)">
    <path
       style="font-size:375.84829712px;font-style:normal;font-variant:normal;font-weight:normal;font-stretch:normal;text-align:start;line-height:125%;writing-mode:lr-tb;text-anchor:start;fill:#000000;fill-opacity:1;stroke:none;stroke-width:1px;stroke-linecap:butt;stroke-linejoin:miter;stroke-opacity:1;font-family:Times New Roman"
       d="M 91.209136,167.94707 L 14.130872,167.94707 L 14.130872,161.15684 C 24.775271,160.30026 32.636023,157.94509 37.71315,154.09133 C 42.790768,150.23727 50.712693,138.58379 61.478948,119.13083 C 72.245646,99.677651 84.357933,81.509221 97.815844,64.625485 C 86.927206,51.90141 77.200673,43.000714 68.636215,37.923372 C 60.072187,32.845969 51.446771,30.307283 42.759941,30.307305 C 34.318285,30.307283 27.161024,32.601276 21.288139,37.189293 C 15.415777,41.777251 11.256002,48.536886 8.8088007,57.468217 L 2.0185727,52.513186 C 6.5456678,35.262309 13.825275,22.538291 23.857414,14.341093 C 33.890072,6.1438825 45.574147,2.0452805 58.909673,2.0452748 C 68.942296,2.0452805 79.127627,4.7674863 89.465699,10.2119 C 99.804157,15.65631 111.09061,24.862871 123.32508,37.831612 C 138.49619,24.373486 152.16839,15.044578 164.34173,9.844861 C 176.51531,4.64514 189.51461,2.0452805 203.33966,2.0452748 C 223.52688,2.0452805 239.55425,7.4285189 251.42182,18.195006 C 263.28944,28.961473 269.22324,41.807837 269.22322,56.734139 C 269.22324,71.537995 263.90117,86.311314 253.25701,101.05414 C 242.61291,115.79678 222.60929,131.05949 193.24608,146.8423 C 198.99645,159.56618 202.91153,169.99621 204.99134,178.13241 C 207.0713,186.26827 208.11125,194.06785 208.11117,201.53117 C 208.11125,222.45219 200.40343,238.41839 184.98769,249.4298 C 172.99785,257.9938 159.35624,262.27592 144.06281,262.27618 C 129.50373,262.27592 117.63614,257.96322 108.45999,249.33804 C 99.284185,240.71238 94.696198,230.09884 94.696009,217.49738 C 94.696198,204.52846 99.131252,193.15025 108.00119,183.36272 C 116.87147,173.57484 132.56239,162.86953 155.07399,151.24677 C 139.53613,123.59636 123.32524,98.270668 106.44127,75.269626 C 84.908491,100.96229 74.142015,122.61759 74.141806,140.23559 C 74.142015,145.86339 75.977209,150.87959 79.647396,155.28421 C 82.339219,158.58741 86.193128,160.54495 91.209136,161.15684 L 91.209136,167.94707 z M 161.31365,163.17555 C 146.14283,170.39383 134.79521,178.59104 127.27075,187.76719 C 119.74661,196.94299 115.98446,207.1589 115.98429,218.41498 C 115.98446,227.2237 118.70667,234.50331 124.15092,240.25382 C 129.59549,246.00386 136.35513,248.879 144.42984,248.87924 C 155.07411,248.879 163.11838,245.17803 168.56268,237.7763 C 174.00721,230.37412 176.72941,223.1251 176.72931,216.02922 C 176.72941,210.03404 175.68947,203.33558 173.60947,195.93382 C 171.5297,188.53167 167.43109,177.61227 161.31365,163.17555 L 161.31365,163.17555 z M 132.86811,48.475753 C 149.01797,70.498051 160.21266,86.586594 166.45221,96.741428 C 172.69199,106.89609 179.54338,119.49776 187.00641,134.54648 C 201.68807,126.10446 212.72982,116.80614 220.13171,106.65149 C 227.53373,96.496646 231.2347,85.485477 231.23465,73.617949 C 231.2347,60.526826 227.01376,49.026271 218.57179,39.11625 C 210.12996,29.206166 198.75175,24.251139 184.43713,24.251156 C 176.72941,24.251139 169.29687,25.780468 162.13949,28.839148 C 154.98235,31.897785 145.22523,38.443313 132.86811,48.475753 L 132.86811,48.475753 z "
       id="text2231" />
  </g>
</svg>
